# Blender v2.80 (sub 75) OBJ File: 'workstation.blend'
# www.blender.org
mtllib workstation.mtl
o Workstation
v 0.250000 0.600000 0.500000
v 0.250000 -0.000000 0.500000
v -0.250000 0.600000 0.500000
v -0.250000 -0.000000 0.500000
v 0.000000 0.600000 0.500000
v 0.000000 -0.000000 0.500000
v -0.225000 0.600000 0.500000
v -0.225000 -0.000000 0.500000
v 0.225000 -0.000000 0.500000
v 0.225000 0.600000 0.500000
v 0.250000 0.800000 0.500000
v -0.250000 0.800000 0.500000
v -0.225000 0.800000 0.500000
v 0.225000 0.800000 0.500000
v -0.250000 0.600000 0.250000
v -0.250000 0.800000 0.250000
v 0.500000 0.600000 0.250000
v 0.500000 -0.000000 0.250000
v -0.500000 0.600000 0.250000
v -0.500000 -0.000000 0.250000
v -0.500000 -0.000000 0.225000
v 0.500000 0.600000 0.225000
v 0.500000 -0.000000 0.225000
v -0.500000 0.600000 0.225000
v 0.500000 0.800000 0.250000
v -0.500000 0.800000 0.250000
v 0.500000 0.800000 0.225000
v -0.500000 0.800000 0.225000
v 0.000000 0.600000 0.225000
v 0.225000 0.600000 0.250000
v 0.225000 0.800000 0.250000
v -0.225000 0.600000 0.250000
v 0.250000 0.600000 0.250000
v 0.250000 0.800000 0.250000
v 0.000000 0.600000 0.250000
v -0.250000 0.600000 0.225000
v -0.250000 0.800000 0.225000
v -0.250000 -0.000000 0.250000
v -0.225000 0.600000 0.225000
v -0.225000 0.800000 0.250000
v -0.225000 0.800000 0.225000
v 0.250000 -0.000000 0.250000
v 0.250000 0.600000 0.225000
v 0.250000 0.800000 0.225000
v 0.225000 0.600000 0.225000
v 0.225000 0.800000 0.225000
v 0.200000 0.650000 0.500000
v -0.200000 0.650000 0.500000
v 0.200000 0.641221 0.499039
v -0.200000 0.641221 0.499039
v 0.200000 0.632779 0.496194
v -0.200000 0.632779 0.496194
v 0.200000 0.624999 0.491574
v -0.200000 0.624999 0.491574
v 0.200000 0.618180 0.485355
v -0.200000 0.618180 0.485355
v 0.200000 0.612584 0.477779
v -0.200000 0.612584 0.477779
v 0.200000 0.608425 0.469134
v -0.200000 0.608425 0.469134
v 0.200000 0.605865 0.459755
v -0.200000 0.605865 0.459755
v 0.200000 0.605000 0.450000
v -0.200000 0.605000 0.450000
v 0.200000 0.695000 0.450000
v -0.200000 0.695000 0.450000
v 0.200000 0.694135 0.459755
v -0.200000 0.694135 0.459755
v 0.200000 0.691574 0.469134
v -0.200000 0.691574 0.469134
v 0.200000 0.687416 0.477779
v -0.200000 0.687416 0.477779
v 0.200000 0.681820 0.485355
v -0.200000 0.681820 0.485356
v 0.200000 0.675001 0.491574
v -0.200000 0.675001 0.491574
v 0.200000 0.667221 0.496194
v -0.200000 0.667221 0.496194
v 0.200000 0.658779 0.499039
v -0.200000 0.658779 0.499039
v 0.200000 0.605000 0.300000
v -0.200000 0.605000 0.300000
v 0.200000 0.605865 0.290246
v -0.200000 0.605865 0.290246
v 0.200000 0.608425 0.280866
v -0.200000 0.608425 0.280866
v 0.200000 0.612584 0.272222
v -0.200000 0.612584 0.272222
v 0.200000 0.618180 0.264645
v -0.200000 0.618180 0.264645
v 0.200000 0.624999 0.258427
v -0.200000 0.624999 0.258427
v 0.200000 0.632779 0.253806
v -0.200000 0.632779 0.253806
v 0.200000 0.641221 0.250961
v -0.200000 0.641221 0.250961
v 0.200000 0.650000 0.250000
v -0.200000 0.650000 0.250000
v 0.200000 0.658779 0.250961
v -0.200000 0.658779 0.250961
v 0.200000 0.667221 0.253806
v -0.200000 0.667221 0.253806
v 0.200000 0.675001 0.258427
v -0.200000 0.675001 0.258427
v 0.200000 0.681820 0.264645
v -0.200000 0.681820 0.264645
v 0.200000 0.687416 0.272222
v -0.200000 0.687416 0.272222
v 0.200000 0.691575 0.280866
v -0.200000 0.691575 0.280866
v 0.200000 0.694135 0.290246
v -0.200000 0.694135 0.290246
v 0.200000 0.695000 0.300000
v -0.200000 0.695000 0.300000
v 0.000000 0.000000 -0.500000
v 0.000000 0.600000 -0.500000
v 0.097545 0.000000 -0.490393
v 0.097545 0.600000 -0.490393
v 0.191342 0.000000 -0.461940
v 0.191342 0.600000 -0.461940
v 0.277785 0.000000 -0.415735
v 0.277785 0.600000 -0.415735
v 0.353553 0.000000 -0.353553
v 0.353553 0.600000 -0.353553
v 0.415735 0.000000 -0.277785
v 0.415735 0.600000 -0.277785
v 0.461940 0.000000 -0.191342
v 0.461940 0.600000 -0.191342
v 0.490393 0.000000 -0.097545
v 0.490393 0.600000 -0.097545
v 0.500000 0.000000 -0.000000
v 0.500000 0.600000 -0.000000
v 0.500000 0.000000 0.097545
v 0.500000 0.600000 0.097545
v 0.500000 0.000000 0.191342
v 0.500000 0.600000 0.191342
v -0.500000 0.000000 0.191341
v -0.500000 0.600000 0.191341
v -0.500000 0.000000 0.097545
v -0.500000 0.600000 0.097545
v -0.500000 0.000000 -0.000000
v -0.500000 0.600000 -0.000001
v -0.490392 0.000000 -0.097546
v -0.490392 0.600000 -0.097546
v -0.461939 0.000000 -0.191342
v -0.461939 0.600000 -0.191342
v -0.415734 0.000000 -0.277786
v -0.415734 0.600000 -0.277786
v -0.353553 0.000000 -0.353554
v -0.353553 0.600000 -0.353554
v -0.277784 0.000000 -0.415735
v -0.277784 0.600000 -0.415735
v -0.191341 0.000000 -0.461940
v -0.191341 0.600000 -0.461940
v -0.097544 0.000000 -0.490393
v -0.097544 0.600000 -0.490393
v 0.000000 0.600000 0.191342
v 0.000000 0.600000 0.097545
v 0.000000 0.600000 -0.000000
v 0.000000 0.600000 -0.097545
v 0.000000 0.600000 -0.191342
v -0.166667 0.600000 0.191341
v -0.333333 0.600000 0.191341
v -0.166667 0.600000 0.097545
v -0.333333 0.600000 0.097545
v -0.166667 0.600000 -0.000000
v -0.333333 0.600000 -0.000000
v -0.163464 0.600000 -0.097546
v -0.326928 0.600000 -0.097546
v -0.153980 0.600000 -0.191342
v -0.307960 0.600000 -0.191342
v 0.333333 0.600000 0.191342
v 0.166667 0.600000 0.191342
v 0.333333 0.600000 0.097545
v 0.166667 0.600000 0.097545
v 0.333333 0.600000 -0.000000
v 0.166667 0.600000 -0.000000
v 0.326928 0.600000 -0.097545
v 0.163464 0.600000 -0.097545
v 0.307960 0.600000 -0.191342
v 0.153980 0.600000 -0.191342
v -0.116356 0.600000 -0.390709
v 0.000000 0.600000 -0.294228
v 0.000000 0.600000 -0.397114
v -0.135168 0.600000 -0.291026
v 0.116357 0.600000 -0.390709
v 0.135168 0.600000 -0.291025
v -0.234955 0.600000 -0.372131
v -0.275451 0.600000 -0.284406
v 0.275452 0.600000 -0.284405
v 0.234955 0.600000 -0.372131
v -0.116356 1.300000 -0.390709
v 0.000000 1.300000 -0.294228
v 0.000000 1.300000 -0.397114
v -0.135168 1.300000 -0.291026
v 0.116357 1.300000 -0.390709
v 0.135168 1.300000 -0.291025
v 0.000000 1.100000 -0.294228
v -0.135168 1.100000 -0.291026
v 0.135168 1.100000 -0.291025
v 0.116357 1.100000 -0.390709
v -0.116356 1.100000 -0.390709
v 0.000000 1.100000 -0.397114
v -0.000000 1.300000 0.005772
v -0.135168 1.300000 0.008974
v 0.135168 1.300000 0.008975
v -0.000000 1.100000 0.005772
v -0.135168 1.100000 0.008974
v 0.135168 1.100000 0.008975
vt 0.201808 0.513578
vt 0.201808 0.364866
vt 0.201808 0.364866
vt 0.201808 0.513578
vt 0.216680 0.364866
vt 0.216680 0.364866
vt 0.201808 0.364866
vt 0.499234 0.513578
vt 0.499234 0.513578
vt 0.499234 0.364866
vt 0.499234 0.364866
vt 0.484362 0.364866
vt 0.484362 0.364866
vt 0.350521 0.364866
vt 0.350521 0.364866
vt 0.484362 0.513578
vt 0.350521 0.513578
vt 0.216680 0.513578
vt 0.499234 0.364866
vt 0.484362 0.364866
vt 0.216680 0.513578
vt 0.216680 0.364866
vt 0.499234 0.513578
vt 0.484362 0.513578
vt 0.201808 0.513578
vt 0.053096 0.513578
vt 0.053096 0.513578
vt 0.647946 0.528450
vt 0.647946 0.528450
vt 0.647946 0.513578
vt 0.647946 0.513578
vt 0.053096 0.528450
vt 0.053096 0.513578
vt 0.053096 0.528450
vt 0.053096 0.528450
vt 0.201808 0.528450
vt 0.647946 0.513578
vt 0.201808 0.528450
vt 0.647946 0.528450
vt 0.216680 0.528450
vt 0.216680 0.528450
vt 0.499234 0.528450
vt 0.499234 0.528450
vt 0.484362 0.528450
vt 0.484362 0.528450
vt 0.350521 0.528450
vt 0.647946 0.548471
vt 0.647946 0.548471
vt 0.053096 0.548472
vt 0.053096 0.548472
vt 0.548804 0.548471
vt 0.449663 0.548471
vt 0.350521 0.548471
vt 0.251379 0.548471
vt 0.152237 0.548471
vt 0.968027 0.036264
vt 0.730087 0.036264
vt 0.730087 0.036836
vt 0.968027 0.036836
vt 0.730087 0.038528
vt 0.968027 0.038528
vt 0.730087 0.041277
vt 0.968027 0.041277
vt 0.730087 0.044975
vt 0.968027 0.044975
vt 0.730087 0.049482
vt 0.968027 0.049483
vt 0.730087 0.054625
vt 0.968027 0.054625
vt 0.730087 0.060204
vt 0.968027 0.060204
vt 0.730086 0.066007
vt 0.968027 0.066007
vt 0.968027 0.066007
vt 0.730087 0.066006
vt 0.730087 0.060204
vt 0.968027 0.060204
vt 0.730087 0.054624
vt 0.968027 0.054625
vt 0.730087 0.049482
vt 0.968027 0.049483
vt 0.730087 0.044975
vt 0.968027 0.044975
vt 0.730087 0.041276
vt 0.968027 0.041277
vt 0.730087 0.038528
vt 0.968027 0.038528
vt 0.730087 0.036836
vt 0.968027 0.036836
vt 0.968027 0.155234
vt 0.730086 0.155234
vt 0.730086 0.161037
vt 0.968027 0.161037
vt 0.730086 0.166616
vt 0.968027 0.166616
vt 0.730086 0.171758
vt 0.968027 0.171758
vt 0.730086 0.176265
vt 0.968027 0.176265
vt 0.730086 0.179964
vt 0.968027 0.179964
vt 0.730086 0.182713
vt 0.968027 0.182713
vt 0.730086 0.184405
vt 0.968027 0.184405
vt 0.730086 0.184977
vt 0.968027 0.184977
vt 0.730086 0.184405
vt 0.968027 0.184405
vt 0.730086 0.182713
vt 0.968027 0.182713
vt 0.730086 0.179964
vt 0.968027 0.179964
vt 0.730086 0.176265
vt 0.968027 0.176265
vt 0.730086 0.171758
vt 0.968027 0.171758
vt 0.730087 0.166616
vt 0.968027 0.166616
vt 0.730087 0.161037
vt 0.968027 0.161037
vt 0.730087 0.155234
vt 0.968027 0.155234
vt 0.350521 0.959716
vt 0.350521 0.959716
vt 0.408546 0.954001
vt 0.408546 0.954001
vt 0.464341 0.937076
vt 0.464341 0.937076
vt 0.515761 0.909591
vt 0.515761 0.909591
vt 0.560832 0.872602
vt 0.560832 0.872602
vt 0.597821 0.827532
vt 0.597821 0.827532
vt 0.625306 0.776111
vt 0.625306 0.776111
vt 0.642231 0.720316
vt 0.642231 0.720316
vt 0.647946 0.662291
vt 0.647946 0.662291
vt 0.647946 0.604266
vt 0.647946 0.604266
vt 0.053096 0.604266
vt 0.053096 0.604266
vt 0.053096 0.662291
vt 0.053096 0.662291
vt 0.058811 0.720316
vt 0.058811 0.720316
vt 0.075736 0.776111
vt 0.075736 0.776111
vt 0.103221 0.827532
vt 0.103221 0.827532
vt 0.140210 0.872603
vt 0.140210 0.872603
vt 0.185281 0.909591
vt 0.185281 0.909591
vt 0.236702 0.937076
vt 0.236702 0.937076
vt 0.292497 0.954001
vt 0.292497 0.954001
vt 0.152237 0.604266
vt 0.152237 0.662291
vt 0.156047 0.720316
vt 0.167331 0.776111
vt 0.447758 0.720316
vt 0.442116 0.776111
vt 0.350521 0.776111
vt 0.350521 0.720316
vt 0.449663 0.662291
vt 0.350521 0.662291
vt 0.449663 0.604266
vt 0.350521 0.604266
vt 0.258926 0.776111
vt 0.253284 0.720316
vt 0.251379 0.662291
vt 0.251379 0.604266
vt 0.548804 0.604266
vt 0.548804 0.662291
vt 0.544994 0.720316
vt 0.533711 0.776111
vt 0.350521 0.898514
vt 0.419736 0.894705
vt 0.270116 0.835408
vt 0.350521 0.837313
vt 0.281306 0.894705
vt 0.430926 0.835408
vt 0.430926 0.835408
vt 0.430926 0.656953
vt 0.430926 0.656953
vt 0.430926 0.835408
vt 0.350521 0.837313
vt 0.350521 0.658858
vt 0.514373 0.831470
vt 0.490284 0.883654
vt 0.186669 0.831470
vt 0.210758 0.883654
vt 0.350521 0.898514
vt 0.350521 0.837313
vt 0.419736 0.894705
vt 0.281306 0.894705
vt 0.270116 0.835408
vt 0.419736 0.894705
vt 0.350521 0.898514
vt 0.281306 0.894705
vt 0.270116 0.835408
vt 0.350521 0.658858
vt 0.270116 0.656953
vt 0.270116 0.656953
vn -1.0000 0.0000 0.0000
vn 0.0000 0.0000 1.0000
vn 1.0000 0.0000 0.0000
vn 0.0000 1.0000 0.0000
vn 0.0000 0.0000 -1.0000
vn 0.0000 -0.2153 0.9765
vn 0.0000 -0.4173 0.9087
vn 0.0000 -0.5953 0.8035
vn 0.0000 -0.7426 0.6697
vn 0.0000 -0.8565 0.5161
vn 0.0000 -0.9368 0.3499
vn 0.0000 -0.9843 0.1765
vn 0.0000 -0.9990 0.0442
vn 0.0000 0.9990 0.0442
vn 0.0000 0.9843 0.1765
vn 0.0000 0.9368 0.3499
vn 0.0000 0.8565 0.5161
vn 0.0000 0.7426 0.6697
vn 0.0000 0.5953 0.8035
vn 0.0000 0.4173 0.9087
vn 0.0000 0.2153 0.9765
vn 0.0000 -0.9990 -0.0442
vn 0.0000 -0.9843 -0.1765
vn 0.0000 -0.9368 -0.3499
vn 0.0000 -0.8565 -0.5161
vn 0.0000 -0.7426 -0.6697
vn 0.0000 -0.5953 -0.8035
vn 0.0000 -0.4173 -0.9087
vn 0.0000 -0.2153 -0.9765
vn 0.0000 0.2153 -0.9765
vn 0.0000 0.4173 -0.9087
vn 0.0000 0.5953 -0.8035
vn 0.0000 0.7426 -0.6697
vn 0.0000 0.8565 -0.5161
vn 0.0000 0.9368 -0.3499
vn 0.0000 0.9843 -0.1765
vn 0.0000 0.9990 -0.0442
vn 0.0000 0.6857 -0.7279
vn 0.1420 0.6857 -0.7139
vn 0.1951 0.0000 -0.9808
vn 0.2785 0.6857 -0.6725
vn 0.3827 0.0000 -0.9239
vn 0.4044 0.6857 -0.6052
vn 0.5556 0.0000 -0.8314
vn 0.5147 0.6857 -0.5147
vn 0.7071 0.0000 -0.7071
vn 0.6052 0.6857 -0.4044
vn 0.8314 0.0000 -0.5556
vn 0.6725 0.6857 -0.2785
vn 0.9239 0.0000 -0.3827
vn 0.7139 0.6857 -0.1420
vn 0.9808 0.0000 -0.1951
vn 0.7169 0.6962 -0.0352
vn 0.9988 0.0000 -0.0490
vn 0.7071 0.7071 0.0000
vn -0.7071 0.7071 0.0000
vn -0.7169 0.6962 -0.0352
vn -0.9988 0.0000 -0.0490
vn -0.7139 0.6857 -0.1420
vn -0.9808 0.0000 -0.1951
vn -0.6725 0.6857 -0.2785
vn -0.9239 0.0000 -0.3827
vn -0.6052 0.6857 -0.4044
vn -0.8314 0.0000 -0.5556
vn -0.5147 0.6857 -0.5147
vn -0.7071 0.0000 -0.7071
vn -0.4044 0.6857 -0.6052
vn -0.5556 0.0000 -0.8314
vn -0.2785 0.6857 -0.6725
vn -0.3827 0.0000 -0.9239
vn -0.1420 0.6857 -0.7139
vn -0.1951 0.0000 -0.9808
vn 0.0000 0.7197 -0.6943
vn 0.3190 0.8751 -0.3640
vn -0.2840 0.9280 0.2411
vn 0.0000 0.7018 0.7123
vn -0.3190 0.8751 -0.3640
vn 0.9265 -0.3197 0.1981
vn 0.7237 0.6867 -0.0677
vn 0.5711 0.5761 0.5848
vn 0.5711 -0.5761 0.5848
vn 0.2840 0.9280 0.2411
vn 0.0000 -0.7018 0.7123
vn 0.0000 -0.7125 0.7017
vn 0.0000 0.6949 -0.7190
vn 0.5316 0.5911 -0.6066
vn -0.5316 0.5911 -0.6066
vn -0.7237 0.6867 -0.0677
vn 0.6591 0.0000 -0.7520
vn -0.6591 0.0000 -0.7520
vn -0.9265 -0.3197 0.1981
vn 0.0000 0.7125 0.7017
vn -0.5711 -0.5761 0.5848
vn -0.5711 0.5761 0.5848
usemtl Workstation
s off
f 15/1/1 3/2/1 12/3/1 16/4/1
f 8/5/2 7/6/2 3/2/2 4/7/2
f 42/8/3 33/9/3 1/10/3 2/11/3
f 9/12/2 10/13/2 5/14/2 6/15/2
f 30/16/4 35/17/4 5/14/4 10/13/4
f 6/15/2 5/14/2 7/6/2 8/5/2
f 35/17/4 32/18/4 7/6/4 5/14/4
f 10/13/2 1/10/2 11/19/2 14/20/2
f 2/11/2 1/10/2 10/13/2 9/12/2
f 40/21/4 16/4/4 12/3/4 13/22/4
f 34/23/4 31/24/4 14/20/4 11/19/4
f 30/16/1 10/13/1 14/20/1 31/24/1
f 3/2/2 7/6/2 13/22/2 12/3/2
f 7/6/3 32/18/3 40/21/3 13/22/3
f 1/10/3 33/9/3 34/23/3 11/19/3
f 4/7/1 3/2/1 15/1/1 38/25/1
f 38/25/2 15/1/2 19/26/2 20/27/2
f 23/28/3 22/29/3 17/30/3 18/31/3
f 24/32/1 19/26/1 26/33/1 28/34/1
f 20/27/1 19/26/1 24/32/1 21/35/1
f 16/4/4 37/36/4 28/34/4 26/33/4
f 33/9/2 17/30/2 25/37/2 34/23/2
f 36/38/5 24/32/5 28/34/5 37/36/5
f 17/30/3 22/29/3 27/39/3 25/37/3
f 19/26/2 15/1/2 16/4/2 26/33/2
f 39/40/5 36/38/5 37/36/5 41/41/5
f 40/21/4 41/41/4 37/36/4 16/4/4
f 15/1/2 32/18/2 40/21/2 16/4/2
f 18/31/2 17/30/2 33/9/2 42/8/2
f 25/37/4 27/39/4 44/42/4 34/23/4
f 22/29/5 43/43/5 44/42/5 27/39/5
f 30/16/2 33/9/2 34/23/2 31/24/2
f 34/23/4 44/42/4 46/44/4 31/24/4
f 43/43/5 45/45/5 46/44/5 44/42/5
f 45/45/1 30/16/1 31/24/1 46/44/1
f 35/17/4 30/16/4 45/45/4 29/46/4
f 32/18/4 35/17/4 29/46/4 39/40/4
f 39/40/3 41/41/3 40/21/3 32/18/3
f 23/28/3 135/47/3 136/48/3 22/29/3
f 21/35/1 24/32/1 138/49/1 137/50/1
f 43/43/4 22/29/4 136/48/4 172/51/4
f 45/45/4 43/43/4 172/51/4 173/52/4
f 29/46/4 45/45/4 173/52/4 157/53/4
f 39/40/4 29/46/4 157/53/4 162/54/4
f 36/38/4 39/40/4 162/54/4 163/55/4
f 24/32/4 36/38/4 163/55/4 138/49/4
s 1
f 47/56/2 48/57/2 50/58/6 49/59/6
f 49/59/6 50/58/6 52/60/7 51/61/7
f 51/61/7 52/60/7 54/62/8 53/63/8
f 53/63/8 54/62/8 56/64/9 55/65/9
f 55/65/9 56/64/9 58/66/10 57/67/10
f 57/67/10 58/66/10 60/68/11 59/69/11
f 59/69/11 60/68/11 62/70/12 61/71/12
f 61/71/12 62/70/12 64/72/13 63/73/13
f 65/74/14 66/75/14 68/76/15 67/77/15
f 67/77/15 68/76/15 70/78/16 69/79/16
f 69/79/16 70/78/16 72/80/17 71/81/17
f 71/81/17 72/80/17 74/82/18 73/83/18
f 73/83/18 74/82/18 76/84/19 75/85/19
f 75/85/19 76/84/19 78/86/20 77/87/20
f 77/87/20 78/86/20 80/88/21 79/89/21
f 79/89/21 80/88/21 48/57/2 47/56/2
f 81/90/22 82/91/22 84/92/23 83/93/23
f 83/93/23 84/92/23 86/94/24 85/95/24
f 85/95/24 86/94/24 88/96/25 87/97/25
f 87/97/25 88/96/25 90/98/26 89/99/26
f 89/99/26 90/98/26 92/100/27 91/101/27
f 91/101/27 92/100/27 94/102/28 93/103/28
f 93/103/28 94/102/28 96/104/29 95/105/29
f 95/105/29 96/104/29 98/106/5 97/107/5
f 97/107/5 98/106/5 100/108/30 99/109/30
f 99/109/30 100/108/30 102/110/31 101/111/31
f 101/111/31 102/110/31 104/112/32 103/113/32
f 103/113/32 104/112/32 106/114/33 105/115/33
f 105/115/33 106/114/33 108/116/34 107/117/34
f 107/117/34 108/116/34 110/118/35 109/119/35
f 109/119/35 110/118/35 112/120/36 111/121/36
f 111/121/36 112/120/36 114/122/37 113/123/37
f 63/73/13 64/72/13 82/91/22 81/90/22
f 66/75/14 65/74/14 113/123/37 114/122/37
f 115/124/5 116/125/38 118/126/39 117/127/40
f 117/127/40 118/126/39 120/128/41 119/129/42
f 119/129/42 120/128/41 122/130/43 121/131/44
f 121/131/44 122/130/43 124/132/45 123/133/46
f 123/133/46 124/132/45 126/134/47 125/135/48
f 125/135/48 126/134/47 128/136/49 127/137/50
f 127/137/50 128/136/49 130/138/51 129/139/52
f 129/139/52 130/138/51 132/140/53 131/141/54
f 131/141/54 132/140/53 134/142/55 133/143/3
f 133/143/3 134/142/55 136/48/55 135/47/3
f 137/50/1 138/49/56 140/144/56 139/145/1
f 139/145/1 140/144/56 142/146/57 141/147/58
f 141/147/58 142/146/57 144/148/59 143/149/60
f 143/149/60 144/148/59 146/150/61 145/151/62
f 145/151/62 146/150/61 148/152/63 147/153/64
f 147/153/64 148/152/63 150/154/65 149/155/66
f 149/155/66 150/154/65 152/156/67 151/157/68
f 151/157/68 152/156/67 154/158/69 153/159/70
f 153/159/70 154/158/69 156/160/71 155/161/72
f 155/161/72 156/160/71 116/125/38 115/124/5
f 163/55/4 165/162/4 140/144/56 138/49/56
f 165/162/4 167/163/4 142/146/57 140/144/56
f 167/163/4 169/164/4 144/148/59 142/146/57
f 169/164/4 171/165/4 146/150/61 144/148/59
f 179/166/4 181/167/4 161/168/4 160/169/4
f 177/170/4 179/166/4 160/169/4 159/171/4
f 175/172/4 177/170/4 159/171/4 158/173/4
f 173/52/4 175/172/4 158/173/4 157/53/4
f 160/169/4 161/168/4 170/174/4 168/175/4
f 168/175/4 170/174/4 171/165/4 169/164/4
f 159/171/4 160/169/4 168/175/4 166/176/4
f 166/176/4 168/175/4 169/164/4 167/163/4
f 158/173/4 159/171/4 166/176/4 164/177/4
f 164/177/4 166/176/4 167/163/4 165/162/4
f 157/53/4 158/173/4 164/177/4 162/54/4
f 162/54/4 164/177/4 165/162/4 163/55/4
f 136/48/55 134/142/55 174/178/4 172/51/4
f 172/51/4 174/178/4 175/172/4 173/52/4
f 134/142/55 132/140/53 176/179/4 174/178/4
f 174/178/4 176/179/4 177/170/4 175/172/4
f 132/140/53 130/138/51 178/180/4 176/179/4
f 176/179/4 178/180/4 179/166/4 177/170/4
f 130/138/51 128/136/49 180/181/4 178/180/4
f 178/180/4 180/181/4 181/167/4 179/166/4
f 116/125/38 184/182/73 186/183/74 118/126/39
f 185/184/75 170/174/4 161/168/4 183/185/76
f 156/160/71 182/186/77 184/182/73 116/125/38
f 200/187/78 197/188/79 206/189/80 209/190/81
f 183/185/76 161/168/4 181/167/4 187/191/82
f 198/192/83 200/187/78 209/190/81 207/193/84
f 190/194/4 191/195/4 186/183/74 187/191/82
f 189/196/4 185/184/75 182/186/77 188/197/4
f 148/152/63 189/196/4 188/197/4 150/154/65
f 126/134/47 124/132/45 191/195/4 190/194/4
f 126/134/47 190/194/4 180/181/4 128/136/49
f 181/167/4 180/181/4 190/194/4 187/191/82
f 118/126/39 186/183/74 191/195/4 120/128/41
f 120/128/41 191/195/4 124/132/45 122/130/43
f 156/160/71 154/158/69 188/197/4 182/186/77
f 150/154/65 188/197/4 154/158/69 152/156/67
f 170/174/4 185/184/75 189/196/4 171/165/4
f 148/152/63 146/150/61 171/165/4 189/196/4
f 194/198/85 193/199/4 197/188/79 196/200/86
f 192/201/87 195/202/88 193/199/4 194/198/85
f 200/187/78 201/203/89 196/200/86 197/188/79
f 203/204/5 202/205/90 192/201/87 194/198/85
f 201/203/89 203/204/5 194/198/85 196/200/86
f 202/205/90 199/206/91 195/202/88 192/201/87
f 182/186/77 185/184/75 199/206/91 202/205/90
f 186/183/74 184/182/73 203/204/5 201/203/89
f 184/182/73 182/186/77 202/205/90 203/204/5
f 187/191/82 186/183/74 201/203/89 200/187/78
f 185/184/75 183/185/76 198/192/83 199/206/91
f 183/185/76 187/191/82 200/187/78 198/192/83
f 207/193/84 209/190/81 206/189/80 204/207/92
f 208/208/93 207/193/84 204/207/92 205/209/94
f 193/199/4 195/202/88 205/209/94 204/207/92
f 197/188/79 193/199/4 204/207/92 206/189/80
f 195/202/88 199/206/91 208/208/93 205/209/94
f 199/206/91 198/192/83 207/193/84 208/208/93
