# Blender v2.80 (sub 75) OBJ File: 'conveyor.blend'
# www.blender.org
mtllib conveyor.mtl
o Conveyor
v 0.250000 0.600000 -0.500000
v 0.250000 0.000000 -0.500000
v 0.250000 0.600000 0.500000
v 0.250000 -0.000000 0.500000
v -0.250000 0.600000 -0.500000
v -0.250000 0.000000 -0.500000
v -0.250000 0.600000 0.500000
v -0.250000 -0.000000 0.500000
v 0.000000 0.000000 -0.500000
v -0.000000 0.600000 0.500000
v -0.000000 -0.000000 0.500000
v -0.000000 0.600000 -0.500000
v -0.225000 0.000000 -0.500000
v -0.225000 0.600000 0.500000
v -0.225000 -0.000000 0.500000
v -0.225000 0.600000 -0.500000
v 0.225000 -0.000000 0.500000
v 0.225000 0.600000 -0.500000
v 0.225000 0.000000 -0.500000
v 0.225000 0.600000 0.500000
v 0.250000 0.800000 -0.500000
v 0.250000 0.800000 0.500000
v -0.250000 0.800000 -0.500000
v -0.250000 0.800000 0.500000
v -0.225000 0.800000 0.500000
v -0.225000 0.800000 -0.500000
v 0.225000 0.800000 -0.500000
v 0.225000 0.800000 0.500000
v -0.200000 0.650000 -0.500000
v 0.200000 0.650000 -0.500000
v -0.200000 0.641221 -0.499039
v 0.200000 0.641221 -0.499039
v -0.200000 0.632779 -0.496194
v 0.200000 0.632779 -0.496194
v -0.200000 0.624999 -0.491573
v 0.200000 0.624999 -0.491573
v -0.200000 0.618180 -0.485355
v 0.200000 0.618180 -0.485355
v -0.200000 0.612584 -0.477778
v 0.200000 0.612584 -0.477778
v -0.200000 0.608426 -0.469134
v 0.200000 0.608426 -0.469134
v -0.200000 0.605865 -0.459754
v 0.200000 0.605865 -0.459754
v -0.200000 0.605000 -0.450000
v 0.200000 0.605000 -0.450000
v -0.200000 0.695000 -0.450000
v 0.200000 0.695000 -0.450000
v -0.200000 0.694135 -0.459755
v 0.200000 0.694135 -0.459755
v -0.200000 0.691575 -0.469134
v 0.200000 0.691575 -0.469134
v -0.200000 0.687416 -0.477779
v 0.200000 0.687416 -0.477779
v -0.200000 0.681820 -0.485355
v 0.200000 0.681820 -0.485355
v -0.200000 0.675001 -0.491573
v 0.200000 0.675001 -0.491573
v -0.200000 0.667221 -0.496194
v 0.200000 0.667221 -0.496194
v -0.200000 0.658779 -0.499039
v 0.200000 0.658779 -0.499039
v -0.200000 0.605000 0.450000
v 0.200000 0.605000 0.450000
v -0.200000 0.605865 0.459755
v 0.200000 0.605865 0.459755
v -0.200000 0.608425 0.469134
v 0.200000 0.608425 0.469134
v -0.200000 0.612584 0.477779
v 0.200000 0.612584 0.477779
v -0.200000 0.618180 0.485355
v 0.200000 0.618180 0.485355
v -0.200000 0.624999 0.491574
v 0.200000 0.624999 0.491574
v -0.200000 0.632779 0.496194
v 0.200000 0.632779 0.496194
v -0.200000 0.641221 0.499039
v 0.200000 0.641221 0.499039
v -0.200000 0.650000 0.500000
v 0.200000 0.650000 0.500000
v -0.200000 0.658779 0.499039
v 0.200000 0.658779 0.499039
v -0.200000 0.667221 0.496194
v 0.200000 0.667221 0.496194
v -0.200000 0.675001 0.491574
v 0.200000 0.675001 0.491574
v -0.200000 0.681820 0.485355
v 0.200000 0.681820 0.485355
v -0.200000 0.687416 0.477779
v 0.200000 0.687416 0.477779
v -0.200000 0.691575 0.469134
v 0.200000 0.691575 0.469134
v -0.200000 0.694135 0.459755
v 0.200000 0.694135 0.459755
v -0.200000 0.695000 0.450000
v 0.200000 0.695000 0.450000
v -0.000000 0.650000 -0.500000
v -0.000000 0.641221 -0.499039
v -0.000000 0.632779 -0.496194
v -0.000000 0.624999 -0.491573
v -0.000000 0.618180 -0.485355
v -0.000000 0.612584 -0.477778
v -0.000000 0.608426 -0.469134
v -0.000000 0.605865 -0.459754
v 0.000000 0.605000 -0.450000
v -0.000000 0.695000 -0.450000
v -0.000000 0.694135 -0.459755
v -0.000000 0.691575 -0.469134
v -0.000000 0.687416 -0.477779
v -0.000000 0.681820 -0.485355
v -0.000000 0.675001 -0.491573
v -0.000000 0.667221 -0.496194
v -0.000000 0.658779 -0.499039
v 0.000000 0.605000 0.450000
v 0.000000 0.605865 0.459755
v 0.000000 0.608425 0.469134
v 0.000000 0.612584 0.477779
v 0.000000 0.618180 0.485355
v 0.000000 0.624999 0.491574
v 0.000000 0.632779 0.496194
v 0.000000 0.641221 0.499039
v 0.000000 0.650000 0.500000
v 0.000000 0.658779 0.499039
v 0.000000 0.667221 0.496194
v 0.000000 0.675001 0.491574
v -0.000000 0.681820 0.485355
v -0.000000 0.687416 0.477779
v -0.000000 0.691575 0.469134
v -0.000000 0.694135 0.459755
v -0.000000 0.695000 0.450000
v -0.200000 0.695000 0.000000
v 0.200000 0.695000 0.000000
v -0.000000 0.695000 0.000000
v -0.250000 -0.000000 -0.000000
v 0.250000 0.600000 0.000000
v -0.250000 0.600000 0.000000
v 0.250000 0.000000 0.000000
v -0.000000 0.600000 0.000000
v -0.225000 0.600000 0.000000
v 0.225000 0.600000 0.000000
v 0.250000 0.800000 0.000000
v -0.250000 0.800000 0.000000
v -0.225000 0.800000 0.000000
v 0.225000 0.800000 0.000000
v -0.200000 0.605000 0.000000
v 0.200000 0.605000 0.000000
v 0.000000 0.605000 0.000000
vt 0.590896 0.710261
vt 0.590896 0.585261
vt 0.590896 0.585261
vt 0.590896 0.710261
vt 0.340896 0.572761
vt 0.590896 0.572761
vt 0.340896 0.585261
vt 0.340896 0.710261
vt 0.590896 0.835261
vt 0.340896 0.835261
vt 0.090896 0.710261
vt 0.340896 0.710261
vt 0.340896 0.835261
vt 0.090896 0.835261
vt 0.590896 0.822761
vt 0.840896 0.822761
vt 0.840896 0.835261
vt 0.590896 0.835261
vt 0.590896 0.597761
vt 0.840896 0.597761
vt 0.840896 0.710261
vt 0.590896 0.710261
vt 0.340896 0.347761
vt 0.590896 0.347761
vt 0.590896 0.460261
vt 0.340896 0.460261
vt 0.353396 0.210261
vt 0.465896 0.210261
vt 0.465896 0.335261
vt 0.353396 0.335261
vt 0.590896 0.585261
vt 0.840896 0.585261
vt 0.578396 0.210261
vt 0.578396 0.335261
vt 0.590896 0.335261
vt 0.590896 0.335261
vt 0.590896 0.347761
vt 0.340896 0.335261
vt 0.578396 0.210261
vt 0.590896 0.210261
vt 0.590896 0.335261
vt 0.578396 0.335261
vt 0.340896 0.210261
vt 0.353396 0.210261
vt 0.353396 0.335261
vt 0.340896 0.335261
vt 0.340896 0.585261
vt 0.340896 0.585261
vt 0.340896 0.710261
vt 0.578396 0.085261
vt 0.578396 0.085261
vt 0.840896 0.585261
vt 0.840896 0.597761
vt 0.840896 0.822761
vt 0.840896 0.835261
vt 0.590896 0.572761
vt 0.353396 0.085261
vt 0.353396 0.085261
vt 0.340896 0.835261
vt 0.340896 0.085261
vt 0.590896 0.085261
vt 0.465896 0.085261
vt 0.090896 0.585261
vt 0.590896 0.835261
vt 0.978521 0.096047
vt 0.978521 0.156286
vt 0.970991 0.156286
vt 0.970991 0.096047
vt 0.963462 0.156286
vt 0.963462 0.096047
vt 0.955932 0.156286
vt 0.955932 0.096047
vt 0.948402 0.156286
vt 0.948402 0.096047
vt 0.940872 0.156286
vt 0.940872 0.096047
vt 0.933342 0.156286
vt 0.933342 0.096047
vt 0.925812 0.156286
vt 0.925812 0.096047
vt 0.918283 0.156286
vt 0.918283 0.096047
vt 0.918283 0.096047
vt 0.918283 0.156286
vt 0.918283 0.156286
vt 0.918283 0.096047
vt 0.797805 0.096047
vt 0.797805 0.156286
vt 0.790275 0.156286
vt 0.790275 0.096047
vt 0.782746 0.156286
vt 0.782746 0.096047
vt 0.775216 0.156286
vt 0.775216 0.096047
vt 0.767686 0.156286
vt 0.767686 0.096047
vt 0.760156 0.156286
vt 0.760156 0.096047
vt 0.752626 0.156286
vt 0.752626 0.096047
vt 0.745096 0.156286
vt 0.745096 0.096047
vt 0.737567 0.156286
vt 0.737567 0.096047
vt 0.910753 0.156286
vt 0.910753 0.096047
vt 0.903223 0.156286
vt 0.903223 0.096047
vt 0.895693 0.156286
vt 0.895693 0.096047
vt 0.888163 0.156286
vt 0.888163 0.096047
vt 0.880633 0.156286
vt 0.880633 0.096047
vt 0.873104 0.156286
vt 0.873104 0.096047
vt 0.865574 0.156286
vt 0.865574 0.096047
vt 0.858044 0.156286
vt 0.858044 0.096047
vt 0.850514 0.156286
vt 0.850514 0.096047
vt 0.842984 0.156286
vt 0.842984 0.096047
vt 0.835454 0.156286
vt 0.835454 0.096047
vt 0.827925 0.156286
vt 0.827925 0.096047
vt 0.820395 0.156286
vt 0.820395 0.096047
vt 0.812865 0.156286
vt 0.812865 0.096047
vt 0.805335 0.156286
vt 0.805335 0.096047
vt 0.797805 0.156286
vt 0.797805 0.096047
vt 0.797805 0.096047
vt 0.797805 0.035808
vt 0.797805 0.035808
vt 0.797805 0.156286
vt 0.805335 0.035808
vt 0.812865 0.035808
vt 0.820395 0.035808
vt 0.827925 0.035808
vt 0.835454 0.035808
vt 0.842984 0.035808
vt 0.850514 0.035808
vt 0.858044 0.035808
vt 0.865574 0.035808
vt 0.873104 0.035808
vt 0.880633 0.035808
vt 0.888163 0.035808
vt 0.895693 0.035808
vt 0.903223 0.035808
vt 0.910753 0.035808
vt 0.918283 0.035808
vt 0.745096 0.035808
vt 0.737567 0.035808
vt 0.752626 0.035808
vt 0.760156 0.035808
vt 0.767686 0.035808
vt 0.775216 0.035808
vt 0.782746 0.035808
vt 0.790275 0.035808
vt 0.797805 0.035808
vt 0.918283 0.035808
vt 0.925812 0.035808
vt 0.918283 0.035808
vt 0.933342 0.035808
vt 0.940872 0.035808
vt 0.948402 0.035808
vt 0.955932 0.035808
vt 0.963462 0.035808
vt 0.970991 0.035808
vt 0.978521 0.035808
vn -1.0000 0.0000 0.0000
vn 0.0000 0.0000 1.0000
vn 1.0000 0.0000 0.0000
vn 0.0000 0.0000 -1.0000
vn 0.0000 1.0000 0.0000
vn 0.0000 -0.2153 -0.9765
vn 0.0000 -0.4173 -0.9087
vn 0.0000 -0.5953 -0.8035
vn 0.0000 -0.7426 -0.6697
vn 0.0000 -0.8565 -0.5161
vn 0.0000 -0.9368 -0.3499
vn 0.0000 -0.9843 -0.1765
vn 0.0000 -0.9990 -0.0442
vn 0.0000 -1.0000 0.0000
vn 0.0000 -0.9990 0.0442
vn 0.0000 0.9990 -0.0442
vn 0.0000 0.9843 -0.1765
vn 0.0000 0.9368 -0.3499
vn 0.0000 0.8565 -0.5161
vn 0.0000 0.7426 -0.6697
vn 0.0000 0.5953 -0.8035
vn 0.0000 0.4173 -0.9087
vn 0.0000 0.2153 -0.9765
vn 0.0000 -0.9843 0.1765
vn 0.0000 -0.9368 0.3499
vn 0.0000 -0.8565 0.5161
vn 0.0000 -0.7426 0.6697
vn 0.0000 -0.5953 0.8035
vn 0.0000 -0.4173 0.9087
vn 0.0000 -0.2153 0.9765
vn 0.0000 0.2153 0.9765
vn 0.0000 0.4173 0.9087
vn 0.0000 0.5953 0.8035
vn 0.0000 0.7426 0.6697
vn 0.0000 0.8565 0.5161
vn 0.0000 0.9368 0.3499
vn 0.0000 0.9843 0.1765
vn 0.0000 0.9990 0.0442
usemtl Conveyor
s off
f 136/1/1 7/2/1 24/3/1 142/4/1
f 15/5/2 14/6/2 7/2/2 8/7/2
f 134/8/1 136/1/1 5/9/1 6/10/1
f 137/11/3 135/12/3 3/13/3 4/14/3
f 19/15/4 18/16/4 1/17/4 2/18/4
f 13/19/4 16/20/4 12/21/4 9/22/4
f 17/23/2 20/24/2 10/25/2 11/26/2
f 140/27/5 138/28/5 10/29/5 20/30/5
f 6/31/4 5/32/4 16/20/4 13/19/4
f 11/26/2 10/25/2 14/6/2 15/5/2
f 138/28/5 139/33/5 14/34/5 10/29/5
f 20/24/2 3/35/2 22/36/2 28/37/2
f 4/38/2 3/35/2 20/24/2 17/23/2
f 9/22/4 12/21/4 18/16/4 19/15/4
f 143/39/5 142/40/5 24/41/5 25/42/5
f 141/43/5 144/44/5 28/45/5 22/46/5
f 135/12/3 1/47/3 21/48/3 141/49/3
f 139/33/3 16/50/3 26/51/3 143/39/3
f 16/20/4 5/32/4 23/52/4 26/53/4
f 140/27/1 20/30/1 28/45/1 144/44/1
f 1/17/4 18/16/4 27/54/4 21/55/4
f 7/2/2 14/6/2 25/56/2 24/3/2
f 18/57/1 140/27/1 144/44/1 27/58/1
f 14/34/3 139/33/3 143/39/3 25/42/3
f 3/13/3 135/12/3 141/49/3 22/59/3
f 21/60/5 27/58/5 144/44/5 141/43/5
f 26/51/5 23/61/5 142/40/5 143/39/5
f 12/62/5 16/50/5 139/33/5 138/28/5
f 18/57/5 12/62/5 138/28/5 140/27/5
f 2/63/3 1/47/3 135/12/3 137/11/3
f 8/7/1 7/2/1 136/1/1 134/8/1
f 5/9/1 136/1/1 142/4/1 23/64/1
s 1
f 97/65/4 30/66/4 32/67/6 98/68/6
f 98/68/6 32/67/6 34/69/7 99/70/7
f 99/70/7 34/69/7 36/71/8 100/72/8
f 100/72/8 36/71/8 38/73/9 101/74/9
f 101/74/9 38/73/9 40/75/10 102/76/10
f 102/76/10 40/75/10 42/77/11 103/78/11
f 103/78/11 42/77/11 44/79/12 104/80/12
f 104/80/12 44/79/12 46/81/13 105/82/13
f 147/83/14 146/84/14 64/85/15 114/86/15
f 106/87/16 48/88/16 50/89/17 107/90/17
f 107/90/17 50/89/17 52/91/18 108/92/18
f 108/92/18 52/91/18 54/93/19 109/94/19
f 109/94/19 54/93/19 56/95/20 110/96/20
f 110/96/20 56/95/20 58/97/21 111/98/21
f 111/98/21 58/97/21 60/99/22 112/100/22
f 112/100/22 60/99/22 62/101/23 113/102/23
f 113/102/23 62/101/23 30/103/4 97/104/4
f 114/86/15 64/85/15 66/105/24 115/106/24
f 115/106/24 66/105/24 68/107/25 116/108/25
f 116/108/25 68/107/25 70/109/26 117/110/26
f 117/110/26 70/109/26 72/111/27 118/112/27
f 118/112/27 72/111/27 74/113/28 119/114/28
f 119/114/28 74/113/28 76/115/29 120/116/29
f 120/116/29 76/115/29 78/117/30 121/118/30
f 121/118/30 78/117/30 80/119/2 122/120/2
f 122/120/2 80/119/2 82/121/31 123/122/31
f 123/122/31 82/121/31 84/123/32 124/124/32
f 124/124/32 84/123/32 86/125/33 125/126/33
f 125/126/33 86/125/33 88/127/34 126/128/34
f 126/128/34 88/127/34 90/129/35 127/130/35
f 127/130/35 90/129/35 92/131/36 128/132/36
f 128/132/36 92/131/36 94/133/37 129/134/37
f 129/134/37 94/133/37 96/135/38 130/136/38
f 133/137/5 131/138/5 95/139/38 130/136/38
f 132/140/5 133/137/5 130/136/38 96/135/38
f 93/141/37 129/134/37 130/136/38 95/139/38
f 91/142/36 128/132/36 129/134/37 93/141/37
f 89/143/35 127/130/35 128/132/36 91/142/36
f 87/144/34 126/128/34 127/130/35 89/143/35
f 85/145/33 125/126/33 126/128/34 87/144/34
f 83/146/32 124/124/32 125/126/33 85/145/33
f 81/147/31 123/122/31 124/124/32 83/146/32
f 79/148/2 122/120/2 123/122/31 81/147/31
f 77/149/30 121/118/30 122/120/2 79/148/2
f 75/150/29 120/116/29 121/118/30 77/149/30
f 73/151/28 119/114/28 120/116/29 75/150/29
f 71/152/27 118/112/27 119/114/28 73/151/28
f 69/153/26 117/110/26 118/112/27 71/152/27
f 67/154/25 116/108/25 117/110/26 69/153/26
f 65/155/24 115/106/24 116/108/25 67/154/25
f 63/156/15 114/86/15 115/106/24 65/155/24
f 61/157/23 113/102/23 97/104/4 29/158/4
f 59/159/22 112/100/22 113/102/23 61/157/23
f 57/160/21 111/98/21 112/100/22 59/159/22
f 55/161/20 110/96/20 111/98/21 57/160/21
f 53/162/19 109/94/19 110/96/20 55/161/20
f 51/163/18 108/92/18 109/94/19 53/162/19
f 49/164/17 107/90/17 108/92/18 51/163/18
f 47/165/16 106/87/16 107/90/17 49/164/17
f 145/166/14 147/83/14 114/86/15 63/156/15
f 43/167/12 104/80/12 105/82/13 45/168/13
f 41/169/11 103/78/11 104/80/12 43/167/12
f 39/170/10 102/76/10 103/78/11 41/169/11
f 37/171/9 101/74/9 102/76/10 39/170/10
f 35/172/8 100/72/8 101/74/9 37/171/9
f 33/173/7 99/70/7 100/72/8 35/172/8
f 31/174/6 98/68/6 99/70/7 33/173/7
f 29/175/4 97/65/4 98/68/6 31/174/6
f 48/88/16 106/87/16 133/137/5 132/140/5
f 106/87/16 47/165/16 131/138/5 133/137/5
f 45/168/13 105/82/13 147/83/14 145/166/14
f 105/82/13 46/81/13 146/84/14 147/83/14
