# Blender v2.80 (sub 75) OBJ File: 'Storage.blend'
# www.blender.org
mtllib Storage.mtl
o Storage
v 0.250000 0.600000 0.500000
v 0.250000 -0.000000 0.500000
v -0.250000 0.600000 0.500000
v -0.250000 -0.000000 0.500000
v 0.000000 0.600000 0.500000
v 0.000000 -0.000000 0.500000
v -0.225000 0.600000 0.500000
v -0.225000 -0.000000 0.500000
v 0.225000 -0.000000 0.500000
v 0.225000 0.600000 0.500000
v 0.250000 0.800000 0.500000
v -0.250000 0.800000 0.500000
v -0.225000 0.800000 0.500000
v 0.225000 0.800000 0.500000
v -0.250000 0.600000 0.250000
v -0.250000 0.800000 0.250000
v 0.500000 0.600000 0.250000
v 0.500000 -0.000000 0.250000
v -0.500000 0.600000 0.250000
v -0.500000 -0.000000 0.250000
v -0.500000 -0.000000 0.225000
v 0.500000 0.600000 0.225000
v 0.500000 -0.000000 0.225000
v -0.500000 0.600000 0.225000
v 0.500000 0.800000 0.250000
v -0.500000 0.800000 0.250000
v 0.500000 0.800000 0.225000
v -0.500000 0.800000 0.225000
v 0.000000 0.600000 0.225000
v 0.225000 0.600000 0.250000
v 0.225000 0.800000 0.250000
v -0.225000 0.600000 0.250000
v 0.250000 0.600000 0.250000
v 0.250000 0.800000 0.250000
v 0.000000 0.600000 0.250000
v -0.250000 0.600000 0.225000
v -0.250000 0.800000 0.225000
v -0.250000 -0.000000 0.250000
v -0.225000 0.600000 0.225000
v -0.225000 0.800000 0.250000
v -0.225000 0.800000 0.225000
v 0.250000 -0.000000 0.250000
v 0.250000 0.600000 0.225000
v 0.250000 0.800000 0.225000
v 0.225000 0.600000 0.225000
v 0.225000 0.800000 0.225000
v 0.200000 0.650000 0.500000
v -0.200000 0.650000 0.500000
v 0.200000 0.641221 0.499039
v -0.200000 0.641221 0.499039
v 0.200000 0.632779 0.496194
v -0.200000 0.632779 0.496194
v 0.200000 0.624999 0.491574
v -0.200000 0.624999 0.491574
v 0.200000 0.618180 0.485355
v -0.200000 0.618180 0.485355
v 0.200000 0.612584 0.477779
v -0.200000 0.612584 0.477779
v 0.200000 0.608425 0.469134
v -0.200000 0.608425 0.469134
v 0.200000 0.605865 0.459755
v -0.200000 0.605865 0.459755
v 0.200000 0.605000 0.450000
v -0.200000 0.605000 0.450000
v 0.200000 0.695000 0.450000
v -0.200000 0.695000 0.450000
v 0.200000 0.694135 0.459755
v -0.200000 0.694135 0.459755
v 0.200000 0.691574 0.469134
v -0.200000 0.691574 0.469134
v 0.200000 0.687416 0.477779
v -0.200000 0.687416 0.477779
v 0.200000 0.681820 0.485355
v -0.200000 0.681820 0.485356
v 0.200000 0.675001 0.491574
v -0.200000 0.675001 0.491574
v 0.200000 0.667221 0.496194
v -0.200000 0.667221 0.496194
v 0.200000 0.658779 0.499039
v -0.200000 0.658779 0.499039
v 0.200000 0.605000 0.300000
v -0.200000 0.605000 0.300000
v 0.200000 0.605865 0.290246
v -0.200000 0.605865 0.290246
v 0.200000 0.608425 0.280866
v -0.200000 0.608425 0.280866
v 0.200000 0.612584 0.272222
v -0.200000 0.612584 0.272222
v 0.200000 0.618180 0.264645
v -0.200000 0.618180 0.264645
v 0.200000 0.624999 0.258427
v -0.200000 0.624999 0.258427
v 0.200000 0.632779 0.253806
v -0.200000 0.632779 0.253806
v 0.200000 0.641221 0.250961
v -0.200000 0.641221 0.250961
v 0.200000 0.650000 0.250000
v -0.200000 0.650000 0.250000
v 0.200000 0.658779 0.250961
v -0.200000 0.658779 0.250961
v 0.200000 0.667221 0.253806
v -0.200000 0.667221 0.253806
v 0.200000 0.675001 0.258427
v -0.200000 0.675001 0.258427
v 0.200000 0.681820 0.264645
v -0.200000 0.681820 0.264645
v 0.200000 0.687416 0.272222
v -0.200000 0.687416 0.272222
v 0.200000 0.691575 0.280866
v -0.200000 0.691575 0.280866
v 0.200000 0.694135 0.290246
v -0.200000 0.694135 0.290246
v 0.200000 0.695000 0.300000
v -0.200000 0.695000 0.300000
v 0.475000 0.600000 -0.500000
v 0.475000 0.800000 -0.500000
v -0.475000 0.600000 -0.500000
v -0.475000 0.800000 -0.500000
v -0.500000 0.800000 -0.500000
v 0.500000 0.800000 -0.500000
v -0.500000 0.600000 -0.500000
v 0.500000 -0.000000 -0.500000
v 0.500000 0.600000 -0.500000
v -0.500000 -0.000000 -0.500000
v -0.475000 0.800000 0.250000
v -0.475000 0.600000 0.250000
v -0.475000 -0.000000 0.250000
v -0.475000 0.800000 0.225000
v -0.475000 0.600000 0.225000
v 0.475000 0.800000 0.250000
v 0.475000 0.600000 0.250000
v 0.475000 0.800000 0.225000
v 0.475000 0.600000 0.225000
v 0.475000 -0.000000 0.250000
v 0.500000 0.600000 -0.475000
v 0.500000 -0.000000 -0.475000
v 0.475000 0.800000 -0.475000
v 0.475000 0.600000 -0.475000
v 0.500000 0.800000 -0.475000
v -0.475000 0.800000 -0.475000
v -0.475000 0.600000 -0.475000
v -0.500000 -0.000000 -0.475000
v -0.500000 0.600000 -0.475000
v -0.500000 0.800000 -0.475000
v 0.475000 0.000000 -0.500000
v -0.475000 0.000000 -0.500000
v 0.000000 0.800000 -0.475000
v 0.000000 0.600000 -0.475000
v 0.000000 0.800000 -0.500000
v 0.000000 0.600000 -0.500000
v 0.000000 0.000000 -0.500000
v 0.250000 0.600000 -0.500000
v 0.250000 0.000000 -0.500000
v 0.250000 0.800000 -0.475000
v 0.250000 0.600000 -0.475000
v 0.250000 0.800000 -0.500000
v 0.225000 0.800000 -0.475000
v 0.225000 0.600000 -0.475000
v 0.225000 0.800000 -0.500000
v 0.225000 0.600000 -0.500000
v 0.225000 0.000000 -0.500000
v -0.225000 0.800000 -0.475000
v -0.225000 0.600000 -0.475000
v -0.225000 0.800000 -0.500000
v -0.225000 0.600000 -0.500000
v -0.225000 0.000000 -0.500000
v -0.250000 0.800000 -0.475000
v -0.250000 0.600000 -0.475000
v -0.250000 0.800000 -0.500000
v -0.250000 0.600000 -0.500000
v -0.250000 0.000000 -0.500000
vt 0.319011 0.790465
vt 0.285701 0.802997
vt 0.294207 0.782704
vt 0.304837 0.771645
vt 0.294190 0.946663
vt 0.280890 0.802288
vt 0.299387 0.946147
vt 0.063681 0.851926
vt 0.177384 0.764064
vt 0.207051 0.789613
vt 0.138644 0.916611
vt 0.144380 0.919594
vt 0.211564 0.790397
vt 0.245357 0.797864
vt 0.213822 0.944994
vt 0.223525 0.752201
vt 0.252228 0.757774
vt 0.282616 0.761802
vt 0.203176 0.769859
vt 0.204806 0.769676
vt 0.301912 0.771115
vt 0.293044 0.781845
vt 0.202206 0.752684
vt 0.204851 0.753315
vt 0.388937 0.916628
vt 0.447829 0.861329
vt 0.343388 0.770006
vt 0.345971 0.766629
vt 0.451801 0.856616
vt 0.029092 0.762519
vt 0.160943 0.727505
vt 0.161834 0.731887
vt 0.030728 0.768367
vt 0.348039 0.763627
vt 0.326316 0.755526
vt 0.326368 0.753309
vt 0.455742 0.851883
vt 0.324581 0.756665
vt 0.323424 0.753926
vt 0.162775 0.735452
vt 0.184708 0.728018
vt 0.186198 0.729816
vt 0.455742 0.582014
vt 0.344936 0.671010
vt 0.342659 0.667863
vt 0.451719 0.577145
vt 0.185859 0.725922
vt 0.304874 0.771593
vt 0.283832 0.758251
vt 0.286784 0.756110
vt 0.304086 0.768461
vt 0.302227 0.769322
vt 0.460347 0.567038
vt 0.455835 0.567038
vt 0.455835 0.530937
vt 0.460347 0.530937
vt 0.032398 0.774205
vt 0.187986 0.727537
vt 0.203778 0.750069
vt 0.202198 0.752629
vt 0.210044 0.725762
vt 0.221808 0.746510
vt 0.460347 0.530844
vt 0.455835 0.530844
vt 0.455835 0.494743
vt 0.460347 0.494743
vt 0.205453 0.751486
vt 0.223734 0.748853
vt 0.252735 0.754751
vt 0.213036 0.661301
vt 0.198199 0.641239
vt 0.201967 0.639054
vt 0.213954 0.658811
vt 0.322665 0.683904
vt 0.322485 0.681780
vt 0.307857 0.744815
vt 0.243217 0.658831
vt 0.244219 0.679410
vt 0.223926 0.679303
vt 0.215990 0.661890
vt 0.319853 0.683575
vt 0.320709 0.680708
vt 0.216525 0.658736
vt 0.242970 0.656165
vt 0.143652 0.533618
vt 0.148426 0.531242
vt 0.302938 0.694153
vt 0.340232 0.664871
vt 0.205223 0.637399
vt 0.239326 0.628468
vt 0.153207 0.528878
vt 0.219988 0.500376
vt 0.447634 0.572323
vt 0.308864 0.640917
vt 0.276771 0.630567
vt 0.302118 0.494743
vt 0.376964 0.519886
vt 0.295729 0.665747
vt 0.271248 0.658042
vt 0.294619 0.668434
vt 0.270690 0.660834
vt 0.286189 0.687469
vt 0.266422 0.682015
vt 0.243354 0.627969
vt 0.225673 0.499541
vt 0.245967 0.655909
vt 0.245943 0.658738
vt 0.246776 0.679734
vt 0.297094 0.669652
vt 0.288363 0.688060
vt 0.298514 0.667107
vt 0.312466 0.642917
vt 0.382316 0.522962
vt 0.968027 0.036264
vt 0.730087 0.036264
vt 0.730087 0.036836
vt 0.968027 0.036836
vt 0.730087 0.038528
vt 0.968027 0.038528
vt 0.730087 0.041277
vt 0.968027 0.041277
vt 0.730087 0.044975
vt 0.968027 0.044975
vt 0.730087 0.049482
vt 0.968027 0.049483
vt 0.730087 0.054625
vt 0.968027 0.054625
vt 0.730087 0.060204
vt 0.968027 0.060204
vt 0.730086 0.066007
vt 0.968027 0.066007
vt 0.968027 0.066007
vt 0.730087 0.066006
vt 0.730087 0.060204
vt 0.968027 0.060204
vt 0.730087 0.054624
vt 0.968027 0.054625
vt 0.730087 0.049482
vt 0.968027 0.049483
vt 0.730087 0.044975
vt 0.968027 0.044975
vt 0.730087 0.041276
vt 0.968027 0.041277
vt 0.730087 0.038528
vt 0.968027 0.038528
vt 0.730087 0.036836
vt 0.968027 0.036836
vt 0.968027 0.155234
vt 0.730086 0.155234
vt 0.730086 0.161037
vt 0.968027 0.161037
vt 0.730086 0.166616
vt 0.968027 0.166616
vt 0.730086 0.171758
vt 0.968027 0.171758
vt 0.730086 0.176265
vt 0.968027 0.176265
vt 0.730086 0.179964
vt 0.968027 0.179964
vt 0.730086 0.182713
vt 0.968027 0.182713
vt 0.730086 0.184405
vt 0.968027 0.184405
vt 0.730086 0.184977
vt 0.968027 0.184977
vt 0.730086 0.184405
vt 0.968027 0.184405
vt 0.730086 0.182713
vt 0.968027 0.182713
vt 0.730086 0.179964
vt 0.968027 0.179964
vt 0.730086 0.176265
vt 0.968027 0.176265
vt 0.730086 0.171758
vt 0.968027 0.171758
vt 0.730087 0.166616
vt 0.968027 0.166616
vt 0.730087 0.161037
vt 0.968027 0.161037
vt 0.730087 0.155234
vt 0.968027 0.155234
vn -1.0000 0.0000 0.0000
vn 0.0000 0.0000 1.0000
vn 1.0000 0.0000 0.0000
vn 0.0000 1.0000 0.0000
vn 0.0000 0.0000 -1.0000
vn 0.0000 -0.2153 0.9765
vn 0.0000 -0.4173 0.9087
vn 0.0000 -0.5953 0.8035
vn 0.0000 -0.7426 0.6697
vn 0.0000 -0.8565 0.5161
vn 0.0000 -0.9368 0.3499
vn 0.0000 -0.9843 0.1765
vn 0.0000 -0.9990 0.0442
vn 0.0000 0.9990 0.0442
vn 0.0000 0.9843 0.1765
vn 0.0000 0.9368 0.3499
vn 0.0000 0.8565 0.5161
vn 0.0000 0.7426 0.6697
vn 0.0000 0.5953 0.8035
vn 0.0000 0.4173 0.9087
vn 0.0000 0.2153 0.9765
vn 0.0000 -0.9990 -0.0442
vn 0.0000 -0.9843 -0.1765
vn 0.0000 -0.9368 -0.3499
vn 0.0000 -0.8565 -0.5161
vn 0.0000 -0.7426 -0.6697
vn 0.0000 -0.5953 -0.8035
vn 0.0000 -0.4173 -0.9087
vn 0.0000 -0.2153 -0.9765
vn 0.0000 0.2153 -0.9765
vn 0.0000 0.4173 -0.9087
vn 0.0000 0.5953 -0.8035
vn 0.0000 0.7426 -0.6697
vn 0.0000 0.8565 -0.5161
vn 0.0000 0.9368 -0.3499
vn 0.0000 0.9843 -0.1765
vn 0.0000 0.9990 -0.0442
usemtl Workstation
s off
f 15/1/1 3/2/1 12/3/1 16/4/1
f 8/5/2 7/6/2 3/2/2 4/7/2
f 42/8/3 33/9/3 1/10/3 2/11/3
f 9/12/2 10/13/2 5/14/2 6/15/2
f 30/16/4 35/17/4 5/14/4 10/13/4
f 6/15/2 5/14/2 7/6/2 8/5/2
f 35/17/4 32/18/4 7/6/4 5/14/4
f 10/13/2 1/10/2 11/19/2 14/20/2
f 2/11/2 1/10/2 10/13/2 9/12/2
f 40/21/4 16/4/4 12/3/4 13/22/4
f 34/23/4 31/24/4 14/20/4 11/19/4
f 30/16/1 10/13/1 14/20/1 31/24/1
f 3/2/2 7/6/2 13/22/2 12/3/2
f 7/6/3 32/18/3 40/21/3 13/22/3
f 1/10/3 33/9/3 34/23/3 11/19/3
f 4/7/1 3/2/1 15/1/1 38/25/1
f 127/26/2 126/27/2 19/28/2 20/29/2
f 23/30/3 22/31/3 17/32/3 18/33/3
f 24/34/1 19/28/1 26/35/1 28/36/1
f 20/29/1 19/28/1 24/34/1 21/37/1
f 125/38/4 128/39/4 28/36/4 26/35/4
f 131/40/2 17/32/2 25/41/2 130/42/2
f 142/43/1 143/44/1 121/45/1 124/46/1
f 17/32/3 22/31/3 27/47/3 25/41/3
f 126/27/2 15/1/2 16/48/2 125/38/2
f 39/49/5 36/50/5 37/51/5 41/52/5
f 40/21/4 41/52/4 37/51/4 16/48/4
f 15/53/2 32/54/2 40/55/2 16/56/2
f 134/57/2 131/40/2 33/9/2 42/8/2
f 130/42/4 132/58/4 44/59/4 34/60/4
f 133/61/5 43/62/5 44/59/5 132/58/5
f 30/63/2 33/64/2 34/65/2 31/66/2
f 34/60/4 44/59/4 46/67/4 31/24/4
f 43/62/5 45/68/5 46/67/5 44/59/5
f 45/68/1 30/16/1 31/24/1 46/67/1
f 35/17/4 30/16/4 45/68/4 29/69/4
f 32/18/4 35/17/4 29/69/4 39/49/4
f 39/49/3 41/52/3 40/21/3 32/18/3
f 19/28/2 126/27/2 125/38/2 26/35/2
f 18/33/2 17/32/2 131/40/2 134/57/2
f 139/70/3 135/71/3 123/72/3 120/73/3
f 143/44/1 144/74/1 119/75/1 121/45/1
f 36/50/5 129/76/5 128/39/5 37/51/5
f 154/77/2 155/78/2 138/79/2 137/80/2
f 38/25/2 15/1/2 126/27/2 127/26/2
f 144/74/4 140/81/4 118/82/4 119/75/4
f 137/80/4 139/70/4 120/73/4 116/83/4
f 25/41/4 27/47/4 132/58/4 130/42/4
f 154/77/4 137/80/4 116/83/4 156/84/4
f 135/71/3 136/85/3 122/86/3 123/72/3
f 16/48/4 37/51/4 128/39/4 125/38/4
f 33/9/2 131/40/2 130/42/2 34/60/2
f 22/31/3 23/30/3 136/85/3 135/71/3
f 133/61/1 132/58/1 137/80/1 138/79/1
f 132/58/4 27/47/4 139/70/4 137/80/4
f 27/47/3 22/31/3 135/71/3 139/70/3
f 28/36/4 128/39/4 140/81/4 144/74/4
f 128/39/3 129/76/3 141/87/3 140/81/3
f 24/34/1 28/36/1 144/74/1 143/44/1
f 21/37/1 24/34/1 143/44/1 142/43/1
f 119/75/5 118/82/5 117/88/5 121/45/5
f 120/73/5 123/72/5 115/89/5 116/83/5
f 156/84/5 116/83/5 115/89/5 152/90/5
f 152/90/5 115/89/5 145/91/5 153/92/5
f 122/86/5 145/91/5 115/89/5 123/72/5
f 121/45/5 117/88/5 146/93/5 124/46/5
f 165/94/5 150/95/5 151/96/5 166/97/5
f 164/98/5 149/99/5 150/95/5 165/94/5
f 162/100/4 147/101/4 149/99/4 164/98/4
f 162/100/2 163/102/2 148/103/2 147/101/2
f 160/104/5 152/90/5 153/92/5 161/105/5
f 159/106/5 156/84/5 152/90/5 160/104/5
f 157/107/4 154/77/4 156/84/4 159/106/4
f 157/107/2 158/108/2 155/78/2 154/77/2
f 147/101/2 148/103/2 158/108/2 157/107/2
f 147/101/4 157/107/4 159/106/4 149/99/4
f 149/99/5 159/106/5 160/104/5 150/95/5
f 150/95/5 160/104/5 161/105/5 151/96/5
f 167/109/2 168/110/2 163/102/2 162/100/2
f 167/109/4 162/100/4 164/98/4 169/111/4
f 169/111/5 164/98/5 165/94/5 170/112/5
f 170/112/5 165/94/5 166/97/5 171/113/5
f 117/88/5 170/112/5 171/113/5 146/93/5
f 118/82/5 169/111/5 170/112/5 117/88/5
f 140/81/4 167/109/4 169/111/4 118/82/4
f 140/81/2 141/87/2 168/110/2 167/109/2
f 43/62/4 133/61/4 138/79/4 155/78/4
f 45/68/4 43/62/4 155/78/4 158/108/4
f 29/69/4 45/68/4 158/108/4 148/103/4
f 39/49/4 29/69/4 148/103/4 163/102/4
f 36/50/4 39/49/4 163/102/4 168/110/4
f 129/76/4 36/50/4 168/110/4 141/87/4
s 1
f 47/114/2 48/115/2 50/116/6 49/117/6
f 49/117/6 50/116/6 52/118/7 51/119/7
f 51/119/7 52/118/7 54/120/8 53/121/8
f 53/121/8 54/120/8 56/122/9 55/123/9
f 55/123/9 56/122/9 58/124/10 57/125/10
f 57/125/10 58/124/10 60/126/11 59/127/11
f 59/127/11 60/126/11 62/128/12 61/129/12
f 61/129/12 62/128/12 64/130/13 63/131/13
f 65/132/14 66/133/14 68/134/15 67/135/15
f 67/135/15 68/134/15 70/136/16 69/137/16
f 69/137/16 70/136/16 72/138/17 71/139/17
f 71/139/17 72/138/17 74/140/18 73/141/18
f 73/141/18 74/140/18 76/142/19 75/143/19
f 75/143/19 76/142/19 78/144/20 77/145/20
f 77/145/20 78/144/20 80/146/21 79/147/21
f 79/147/21 80/146/21 48/115/2 47/114/2
f 81/148/22 82/149/22 84/150/23 83/151/23
f 83/151/23 84/150/23 86/152/24 85/153/24
f 85/153/24 86/152/24 88/154/25 87/155/25
f 87/155/25 88/154/25 90/156/26 89/157/26
f 89/157/26 90/156/26 92/158/27 91/159/27
f 91/159/27 92/158/27 94/160/28 93/161/28
f 93/161/28 94/160/28 96/162/29 95/163/29
f 95/163/29 96/162/29 98/164/5 97/165/5
f 97/165/5 98/164/5 100/166/30 99/167/30
f 99/167/30 100/166/30 102/168/31 101/169/31
f 101/169/31 102/168/31 104/170/32 103/171/32
f 103/171/32 104/170/32 106/172/33 105/173/33
f 105/173/33 106/172/33 108/174/34 107/175/34
f 107/175/34 108/174/34 110/176/35 109/177/35
f 109/177/35 110/176/35 112/178/36 111/179/36
f 111/179/36 112/178/36 114/180/37 113/181/37
f 63/131/13 64/130/13 82/149/22 81/148/22
f 66/133/14 65/132/14 113/181/37 114/180/37
